<svg width="40" height="40" viewBox="0 0 512 512" fill="none" xmlns="http://www.w3.org/2000/svg">
    <path d="M256 512C397.4 512 512 397.4 512 256C512 114.6 397.4 0 256 0C114.6 0 0 114.6 0 256C0 397.4 114.6 512 256 512ZM267.3 116.7L379.3 228.7C383.9 233.3 385.2 240.2 382.8 246.1C380.4 252 374.5 256 368 256H304V352C304 369.7 289.7 384 272 384H240C222.3 384 208 369.7 208 352V256H144C137.5 256 131.7 252.1 129.2 246.1C126.7 240.1 128.1 233.2 132.7 228.7L244.7 116.7C250.9 110.5 261.1 110.5 267.3 116.7Z" fill="black"/>
</svg>
