<svg width="15" height="15" viewBox="0 0 27 45" fill="none" xmlns="http://www.w3.org/2000/svg">
    <path fill-rule="evenodd" clip-rule="evenodd" d="M14 10C16.7617 10 19 7.76172 19 5C19 3.69141 18.498 2.5 17.6738 1.60547C16.7598 0.617188 15.4512 0 14 0C11.2383 0 9 2.23828 9 5C9 7.76172 11.2383 10 14 10ZM19 14C19 12.3438 17.6562 11 16 11H12H7C5.94531 11 5.01758 11.543 4.48242 12.3672C4.17773 12.8398 4 13.3984 4 14C4 15.6562 5.34375 17 7 17H9V38H3C1.34375 38 0 39.3438 0 41V42C0 43.6562 1.34375 45 3 45H12H16H24C25.6562 45 27 43.6562 27 42V41C27 39.3438 25.6562 38 24 38H19V14Z" fill="#D9D9D9"/>
</svg>
