<svg width="235" height="247" viewBox="0 0 235 247" fill="none" xmlns="http://www.w3.org/2000/svg">
    <path fill-rule="evenodd" clip-rule="evenodd" d="M125.705 0C136.788 0 146.311 7.63176 148.397 18.1863L149.324 22.8797C152.969 41.3273 172.65 52.3439 190.95 46.1805L195.609 44.6117C206.079 41.0855 217.658 45.265 223.199 54.5714L231.57 68.628C237.113 77.9347 235.056 89.7459 226.671 96.7738L222.942 99.8994C208.285 112.184 208.285 134.217 222.942 146.5L226.671 149.626C235.056 156.654 237.113 168.465 231.57 177.772L223.2 191.828C217.658 201.135 206.079 205.314 195.607 201.788L190.951 200.219C172.65 194.055 152.969 205.071 149.324 223.52L148.397 228.214C146.311 238.768 136.788 246.4 125.705 246.4H108.962C97.8784 246.4 88.3553 238.768 86.27 228.215L85.3421 223.518C81.697 205.071 62.0155 194.055 43.7143 200.219L39.0591 201.787C28.5884 205.314 17.0096 201.134 11.4672 191.827L3.09653 177.772C-2.44567 168.465 -0.389912 156.654 7.9953 149.626L11.725 146.5C26.3812 134.216 26.3812 112.184 11.725 99.8999L7.9953 96.774C-0.389912 89.7459 -2.44566 77.9349 3.09653 68.6285L11.4675 54.5717C17.0097 45.2651 28.5882 41.0856 39.0588 44.612L43.7153 46.1803C62.0161 52.3439 81.697 41.3281 85.3421 22.8808L86.2699 18.1855C88.3553 7.63134 97.8773 0 108.962 0H125.705ZM117.333 158.4C136.773 158.4 152.533 142.64 152.533 123.2C152.533 103.759 136.773 88 117.333 88C97.8923 88 82.133 103.759 82.133 123.2C82.133 142.64 97.8923 158.4 117.333 158.4Z" fill="white"/>
</svg>
