<svg width="25" height="25" viewBox="0 0 43 43" fill="none" xmlns="http://www.w3.org/2000/svg">
    <path d="M31.239 0.697979C31.6345 0.312496 32.2676 0.320617 32.6531 0.716118L42.4248 10.7418C42.8103 11.1373 42.8021 11.7704 42.4066 12.1559L39.5422 14.9478C39.1467 15.3333 38.5135 15.3251 38.1281 14.9296L28.3564 4.90399C27.9709 4.50849 27.979 3.87538 28.3745 3.4899L31.239 0.697979Z" fill="#D9D9D9"/>
    <path d="M25.51 6.28182C25.9055 5.89633 26.5386 5.90445 26.9241 6.29995L36.6958 16.3256C37.0813 16.7211 37.0732 17.3542 36.6777 17.7397L16.6264 37.2831C16.2309 37.6686 15.5978 37.6605 15.2123 37.265L5.44058 27.2393C5.0551 26.8438 5.06322 26.2107 5.45872 25.8252L25.51 6.28182Z" fill="#D9D9D9"/>
    <path d="M1.26331 42.2951C0.517249 42.4847 -0.154381 41.7957 0.0543783 41.0547L3.34234 29.3847C3.5511 28.6437 4.48368 28.4066 5.02098 28.9579L13.4835 37.6404C14.0208 38.1916 13.7599 39.1178 13.0138 39.3075L1.26331 42.2951Z" fill="#D9D9D9"/>
</svg>
